<?xml version="1.0" standalone="no"?>
<!DOCTYPE svg PUBLIC "-//W3C//DTD SVG 20010904//EN"
 "http://www.w3.org/TR/2001/REC-SVG-20010904/DTD/svg10.dtd">
<svg version="1.0" xmlns="http://www.w3.org/2000/svg"
 width="225.000000pt" height="225.000000pt" viewBox="0 0 225.000000 225.000000"
 preserveAspectRatio="xMidYMid meet">
<metadata>
Created by potrace 1.14, written by Peter Selinger 2001-2017
</metadata>
<g transform="translate(0.000000,225.000000) scale(0.100000,-0.100000)"
fill="#000000" stroke="none">
<path d="M524 1785 c-3 -14 -4 -43 -2 -65 l4 -40 -81 0 c-50 0 -86 -5 -93 -12
-9 -9 -12 -84 -12 -275 l0 -263 -157 0 c-87 0 -164 -4 -171 -8 -9 -6 -12 -36
-10 -113 l3 -104 137 -3 138 -3 0 -229 0 -230 110 0 110 0 2 227 3 228 617 3
618 2 2 -227 3 -228 110 0 110 0 3 227 2 227 138 3 137 3 3 104 c2 77 -1 107
-10 113 -7 4 -85 8 -173 8 -146 0 -161 2 -161 18 -1 22 -172 484 -184 496 -5
5 -35 -1 -69 -12 l-60 -20 -3 96 -3 97 -70 0 -70 0 -3 -37 -3 -38 -59 0 c-49
0 -58 3 -54 15 4 8 3 26 0 40 l-7 26 -137 -3 -137 -3 -3 -37 c-3 -34 -6 -38
-31 -38 -20 0 -30 6 -34 20 -5 18 -14 20 -85 20 -71 0 -80 2 -85 20 -5 19 -14
20 -141 20 l-136 0 -6 -25z m244 -337 l2 -318 -100 0 -100 0 0 320 0 321 98
-3 97 -3 3 -317z m512 2 l0 -320 -100 0 -100 0 0 313 c0 173 3 317 7 320 3 4
48 7 100 7 l93 0 0 -320z m260 0 l0 -320 -25 0 -25 0 0 320 0 320 25 0 25 0 0
-320z m-602 -22 l2 -298 -65 0 -65 0 0 300 0 301 63 -3 62 -3 3 -297z m102
-23 l0 -275 -30 0 -30 0 0 275 0 275 30 0 30 0 0 -275z m400 0 l0 -275 -57 0
-58 0 3 275 3 275 54 0 55 0 0 -275z m-915 -25 l0 -250 -67 0 -68 0 0 250 0
250 68 0 67 0 0 -250z m1248 7 c42 -116 77 -215 77 -219 0 -6 -92 -40 -95 -35
-1 1 -38 100 -82 219 l-80 218 46 14 c25 8 48 14 51 15 3 0 40 -95 83 -212z
m-89 -189 l25 -68 -59 0 -60 0 1 158 0 157 34 -90 c18 -49 45 -120 59 -157z
m516 -153 l0 -35 -1075 0 -1075 0 0 35 0 35 1075 0 1075 0 0 -35z m0 -90 c0
-13 -126 -15 -1075 -15 -949 0 -1075 2 -1075 15 0 13 126 15 1075 15 949 0
1075 -2 1075 -15z m-1828 -77 c2 -13 10 -23 18 -23 8 0 16 10 18 23 3 16 10
22 28 22 l24 0 0 -210 0 -210 -70 0 -70 0 0 210 0 210 24 0 c18 0 25 -6 28
-22z m1460 0 c2 -13 10 -23 18 -23 8 0 19 10 25 23 5 12 18 22 27 22 17 0 18
-16 18 -210 l0 -211 -67 3 -68 3 -3 208 -2 207 24 0 c18 0 25 -6 28 -22z"/>
</g>
</svg>
